<?xml version="1.0" encoding="UTF-8"?><svg id="Layer_1" xmlns="http://www.w3.org/2000/svg" viewBox="0 0 250 250"><rect x="0" width="250" height="250" rx="75.95" ry="75.95" style="fill:#618985; stroke-width:0px;"/><path d="M95.69,131.51c3.45,0,6.26,2.81,6.26,6.26s-2.81,6.26-6.26,6.26h-35.39l-.78-.07c-4.54-.58-8.65-1.65-12.39-3.2-3.83-1.58-7.24-3.64-10.27-6.17h-.02c-2.86-2.38-5.36-5.08-7.48-8.02-5.68-7.82-8.74-17.37-8.81-26.89-.07-9.62,2.92-19.19,9.38-26.94,2.09-2.52,4.56-4.83,7.38-6.87,3.28-2.38,7.04-4.39,11.29-6.03,2.92-1.14,6.05-2.09,9.35-2.86,3.74-14.86,11.71-26.3,21.96-34.24,9.59-7.43,21.13-11.76,33.01-12.9,11.83-1.14,24,.87,34.94,6.12,12.53,6.02,22.83,16.25,29.09,28.68,2.72-.43,5.44-.65,8.14-.61,11.42.08,22.44,4.17,31.11,13.52,9.03,9.72,13.4,24.04,13.24,37.09-.12,10.73-3.01,21.4-8.93,29.27-3.86,5.13-8.81,9.3-14.74,12.61-5.71,3.2-12.38,5.63-19.86,7.36-3.37.76-6.71-1.33-7.48-4.69-.76-3.37,1.33-6.71,4.69-7.48,6.31-1.46,11.85-3.47,16.52-6.09,4.47-2.5,8.13-5.54,10.86-9.2,4.25-5.66,6.34-13.67,6.43-21.88.1-8.62-2.01-17.27-6.1-23.56-1.17-1.82-2.45-3.45-3.83-4.91-6.14-6.61-13.92-9.5-22.01-9.55-5.88-.03-11.93,1.38-17.7,3.93-1.27.63-2.57,1.33-3.83,2.06-3.82,2.24-7.62,4.98-11.46,8.13l-8.23-9.42c2.84-2.63,5.92-5.03,9.18-7.16,2.6-1.7,5.32-3.2,8.11-4.5,1.12-.56,2.26-1.09,3.4-1.58-5.42-9.6-13.23-16.49-22.07-20.74-8.84-4.23-18.73-5.86-28.37-4.93-9.57.92-18.87,4.4-26.55,10.37-8.89,6.9-15.64,17.19-18.24,30.84l-.82,4.27-4.25.75c-4.17.73-7.89,1.73-11.15,3.01-3.16,1.22-5.98,2.74-8.45,4.52-1.97,1.43-3.67,3.03-5.12,4.76-4.47,5.36-6.54,12.07-6.49,18.87.05,6.9,2.3,13.87,6.44,19.6,1.55,2.12,3.33,4.08,5.37,5.78l-.02.02c2.04,1.7,4.39,3.11,7.02,4.2,2.6,1.07,5.47,1.84,8.65,2.28h35.24v-.03Z" style="fill:#fff; fill-rule:evenodd; stroke-width:0px;"/><text transform="translate(64.9 121.95)" style="fill:#fff; font-family:Roboto-Black, Roboto; font-size:71px; font-weight:800;"><tspan x="0" y="0">API</tspan></text><path d="M135.01,223.45v-24.24s-23.1-24.39-23.1-24.39c-2.75-2.85-4.61-5.95-5.83-9.24-1.13-3.06-1.7-6.28-1.9-9.61-.03-.21-.04-.43-.04-.65v-14.36h9.86c0,4.81.06,9.65,0,14.46.14,2.35.54,4.61,1.33,6.74.78,2.11,1.97,4.09,3.69,5.87l20.93,22.09,20.93-22.09c1.73-1.79,2.91-3.76,3.69-5.87.79-2.13,1.19-4.39,1.33-6.74-.06-4.81,0-9.65,0-14.46h9.86v14.36c0,.22-.01.44-.04.65-.2,3.33-.77,6.56-1.9,9.61-1.22,3.29-3.09,6.4-5.83,9.24l-23.1,24.39v24.24s10.31-10.61,10.31-10.61c1.89-1.94,5-1.99,6.95-.09,1.94,1.89,1.99,5,.1,6.95l-18.76,19.31h0s-.08.09-.08.09h0s-.03.04-.03.04l-.06.06-.09.08h0s0,0,0,0l-.09.08-.09.07h0s-.09.08-.09.08h0c-1.79,1.32-4.11,1.32-5.9,0h0s-.09-.08-.09-.08h0s-.09-.08-.09-.08l-.09-.08h0s0,0,0,0l-.09-.08-.06-.06-.03-.03h0s-.08-.09-.08-.09h0s-18.76-19.31-18.76-19.31c-1.89-1.94-1.85-5.06.09-6.95,1.95-1.89,5.06-1.85,6.95.09l10.31,10.61h0Z" style="fill:#fff; stroke-width:0px;"/></svg>